<svg width="126" height="49" viewBox="0 0 126 49" fill="none" xmlns="http://www.w3.org/2000/svg">
<path d="M12.5166 42.84C8.9326 42.84 6.05794 42.224 3.8926 40.992C1.7646 39.7227 0.700604 37.968 0.700604 35.728C0.700604 34.6453 1.01794 33.7867 1.6526 33.152C2.3246 32.48 3.12727 32.144 4.0606 32.144C4.99394 32.144 5.7966 32.424 6.4686 32.984C7.1406 33.544 7.56994 34.552 7.75661 36.008L7.9246 36.904C8.18594 38.6213 8.68994 39.8533 9.43661 40.6C10.2206 41.3467 11.2659 41.72 12.5726 41.72V27.888L10.8926 27.272C7.71927 26.1893 5.25527 24.7707 3.5006 23.016C1.78327 21.224 0.924604 18.984 0.924604 16.296C0.924604 13.3093 1.95127 10.8267 4.0046 8.848C6.09527 6.86933 8.96994 5.80533 12.6286 5.656V0.615999H13.9726V5.656C17.2579 5.73067 19.8153 6.47733 21.6446 7.896C23.5113 9.27733 24.4446 10.92 24.4446 12.824C24.4446 13.944 24.1459 14.8027 23.5486 15.4C22.9886 15.9973 22.2046 16.296 21.1966 16.296C20.3379 16.296 19.5539 15.9973 18.8446 15.4C18.1726 14.8027 17.6873 13.6827 17.3886 12.04L17.1646 10.752C16.9406 9.59466 16.6046 8.736 16.1566 8.176C15.7086 7.57867 14.9806 7.224 13.9726 7.112V20.272L14.9806 20.608C18.9006 21.8773 21.6446 23.464 23.2126 25.368C24.8179 27.272 25.6206 29.4933 25.6206 32.032C25.6206 34.0107 25.1353 35.784 24.1646 37.352C23.2313 38.8827 21.8873 40.1333 20.1326 41.104C18.3779 42.0747 16.3059 42.6347 13.9166 42.784V48.44H12.5726V42.84H12.5166ZM6.8606 12.936C6.8606 14.6533 7.32727 16.072 8.2606 17.192C9.23127 18.312 10.6873 19.208 12.6286 19.88V7.056C11.7326 7.13066 10.8366 7.392 9.9406 7.84C9.0446 8.288 8.29794 8.94133 7.7006 9.8C7.1406 10.6213 6.8606 11.6667 6.8606 12.936ZM19.4606 34.888C19.4606 33.208 19.0499 31.9013 18.2286 30.968C17.4073 30.0347 15.9699 29.1573 13.9166 28.336V41.664C15.6339 41.4027 16.9779 40.6747 17.9486 39.48C18.9566 38.2853 19.4606 36.7547 19.4606 34.888ZM41.3305 42.84C39.0905 42.84 36.9812 42.2053 35.0025 40.936C33.0612 39.6667 31.4932 37.6693 30.2985 34.944C29.1039 32.2187 28.5065 28.672 28.5065 24.304C28.5065 19.8987 29.1039 16.3333 30.2985 13.608C31.4932 10.8453 33.0612 8.82933 35.0025 7.56C36.9812 6.29066 39.0905 5.656 41.3305 5.656C43.5705 5.656 45.6612 6.29066 47.6025 7.56C49.5812 8.82933 51.1679 10.8453 52.3625 13.608C53.5945 16.3333 54.2105 19.8987 54.2105 24.304C54.2105 28.672 53.5945 32.2187 52.3625 34.944C51.1679 37.6693 49.5812 39.6667 47.6025 40.936C45.6612 42.2053 43.5705 42.84 41.3305 42.84ZM41.3305 41.72C42.2639 41.72 43.0479 41.4773 43.6825 40.992C44.3545 40.5067 44.8959 39.6293 45.3065 38.36C45.7172 37.0907 46.0159 35.336 46.2025 33.096C46.3892 30.8187 46.4825 27.888 46.4825 24.304C46.4825 20.72 46.3892 17.7893 46.2025 15.512C46.0159 13.1973 45.7172 11.4053 45.3065 10.136C44.8959 8.86666 44.3545 7.98933 43.6825 7.504C43.0479 7.01867 42.2639 6.776 41.3305 6.776C40.3972 6.776 39.5945 7.01867 38.9225 7.504C38.2879 7.98933 37.7652 8.86666 37.3545 10.136C36.9439 11.368 36.6452 13.1413 36.4585 15.456C36.2719 17.7333 36.1785 20.6827 36.1785 24.304C36.1785 27.888 36.2719 30.8187 36.4585 33.096C36.6452 35.3733 36.9439 37.1467 37.3545 38.416C37.7652 39.648 38.2879 40.5067 38.9225 40.992C39.5945 41.4773 40.3972 41.72 41.3305 41.72ZM63.3531 42.84C62.0091 42.84 60.8705 42.3733 59.9371 41.44C59.0038 40.5067 58.5371 39.3867 58.5371 38.08C58.5371 36.7733 59.0038 35.6347 59.9371 34.664C60.8705 33.6933 62.0091 33.208 63.3531 33.208C64.6971 33.208 65.8358 33.6933 66.7691 34.664C67.7025 35.6347 68.1691 36.7733 68.1691 38.08C68.1691 39.3867 67.7025 40.5067 66.7691 41.44C65.8358 42.3733 64.6971 42.84 63.3531 42.84ZM85.3674 42.84C83.1274 42.84 81.0181 42.2053 79.0394 40.936C77.0981 39.6667 75.5301 37.6693 74.3354 34.944C73.1408 32.2187 72.5434 28.672 72.5434 24.304C72.5434 19.8987 73.1408 16.3333 74.3354 13.608C75.5301 10.8453 77.0981 8.82933 79.0394 7.56C81.0181 6.29066 83.1274 5.656 85.3674 5.656C87.6074 5.656 89.6981 6.29066 91.6394 7.56C93.6181 8.82933 95.2048 10.8453 96.3994 13.608C97.6314 16.3333 98.2474 19.8987 98.2474 24.304C98.2474 28.672 97.6314 32.2187 96.3994 34.944C95.2048 37.6693 93.6181 39.6667 91.6394 40.936C89.6981 42.2053 87.6074 42.84 85.3674 42.84ZM85.3674 41.72C86.3008 41.72 87.0848 41.4773 87.7194 40.992C88.3914 40.5067 88.9328 39.6293 89.3434 38.36C89.7541 37.0907 90.0528 35.336 90.2394 33.096C90.4261 30.8187 90.5194 27.888 90.5194 24.304C90.5194 20.72 90.4261 17.7893 90.2394 15.512C90.0528 13.1973 89.7541 11.4053 89.3434 10.136C88.9328 8.86666 88.3914 7.98933 87.7194 7.504C87.0848 7.01867 86.3008 6.776 85.3674 6.776C84.4341 6.776 83.6314 7.01867 82.9594 7.504C82.3248 7.98933 81.8021 8.86666 81.3914 10.136C80.9808 11.368 80.6821 13.1413 80.4954 15.456C80.3088 17.7333 80.2154 20.6827 80.2154 24.304C80.2154 27.888 80.3088 30.8187 80.4954 33.096C80.6821 35.3733 80.9808 37.1467 81.3914 38.416C81.8021 39.648 82.3248 40.5067 82.9594 40.992C83.6314 41.4773 84.4341 41.72 85.3674 41.72ZM113.046 42.84C110.806 42.84 108.697 42.2053 106.718 40.936C104.777 39.6667 103.209 37.6693 102.014 34.944C100.819 32.2187 100.222 28.672 100.222 24.304C100.222 19.8987 100.819 16.3333 102.014 13.608C103.209 10.8453 104.777 8.82933 106.718 7.56C108.697 6.29066 110.806 5.656 113.046 5.656C115.286 5.656 117.377 6.29066 119.318 7.56C121.297 8.82933 122.883 10.8453 124.078 13.608C125.31 16.3333 125.926 19.8987 125.926 24.304C125.926 28.672 125.31 32.2187 124.078 34.944C122.883 37.6693 121.297 39.6667 119.318 40.936C117.377 42.2053 115.286 42.84 113.046 42.84ZM113.046 41.72C113.979 41.72 114.763 41.4773 115.398 40.992C116.07 40.5067 116.611 39.6293 117.022 38.36C117.433 37.0907 117.731 35.336 117.918 33.096C118.105 30.8187 118.198 27.888 118.198 24.304C118.198 20.72 118.105 17.7893 117.918 15.512C117.731 13.1973 117.433 11.4053 117.022 10.136C116.611 8.86666 116.07 7.98933 115.398 7.504C114.763 7.01867 113.979 6.776 113.046 6.776C112.113 6.776 111.31 7.01867 110.638 7.504C110.003 7.98933 109.481 8.86666 109.07 10.136C108.659 11.368 108.361 13.1413 108.174 15.456C107.987 17.7333 107.894 20.6827 107.894 24.304C107.894 27.888 107.987 30.8187 108.174 33.096C108.361 35.3733 108.659 37.1467 109.07 38.416C109.481 39.648 110.003 40.5067 110.638 40.992C111.31 41.4773 112.113 41.72 113.046 41.72Z" fill="#36536B"/>
</svg>
