<svg width="187" height="49" viewBox="0 0 187 49" fill="none" xmlns="http://www.w3.org/2000/svg">
<path d="M12.131 42.84C8.54696 42.84 5.67229 42.224 3.50696 40.992C1.37896 39.7227 0.314961 37.968 0.314961 35.728C0.314961 34.6453 0.632295 33.7867 1.26696 33.152C1.93896 32.48 2.74163 32.144 3.67496 32.144C4.60829 32.144 5.41096 32.424 6.08296 32.984C6.75496 33.544 7.18429 34.552 7.37096 36.008L7.53896 36.904C7.80029 38.6213 8.3043 39.8533 9.05096 40.6C9.83496 41.3467 10.8803 41.72 12.187 41.72V27.888L10.507 27.272C7.33363 26.1893 4.86963 24.7707 3.11496 23.016C1.39763 21.224 0.538961 18.984 0.538961 16.296C0.538961 13.3093 1.56563 10.8267 3.61896 8.848C5.70963 6.86933 8.5843 5.80533 12.243 5.656V0.615999H13.587V5.656C16.8723 5.73067 19.4296 6.47733 21.259 7.896C23.1256 9.27733 24.059 10.92 24.059 12.824C24.059 13.944 23.7603 14.8027 23.163 15.4C22.603 15.9973 21.819 16.296 20.811 16.296C19.9523 16.296 19.1683 15.9973 18.459 15.4C17.787 14.8027 17.3016 13.6827 17.003 12.04L16.779 10.752C16.555 9.59466 16.219 8.736 15.771 8.176C15.323 7.57867 14.595 7.224 13.587 7.112V20.272L14.595 20.608C18.515 21.8773 21.259 23.464 22.827 25.368C24.4323 27.272 25.235 29.4933 25.235 32.032C25.235 34.0107 24.7496 35.784 23.779 37.352C22.8456 38.8827 21.5016 40.1333 19.747 41.104C17.9923 42.0747 15.9203 42.6347 13.531 42.784V48.44H12.187V42.84H12.131ZM6.47496 12.936C6.47496 14.6533 6.94163 16.072 7.87496 17.192C8.84563 18.312 10.3016 19.208 12.243 19.88V7.056C11.347 7.13066 10.451 7.392 9.55496 7.84C8.65896 8.288 7.9123 8.94133 7.31496 9.8C6.75496 10.6213 6.47496 11.6667 6.47496 12.936ZM19.075 34.888C19.075 33.208 18.6643 31.9013 17.843 30.968C17.0216 30.0347 15.5843 29.1573 13.531 28.336V41.664C15.2483 41.4027 16.5923 40.6747 17.563 39.48C18.571 38.2853 19.075 36.7547 19.075 34.888ZM30.7529 15.904L31.1449 7.952C32.2649 7.31733 33.6462 6.776 35.2889 6.328C36.9689 5.88 38.8542 5.656 40.9449 5.656C43.9315 5.656 46.3395 6.08533 48.1689 6.944C49.9982 7.76533 51.3422 8.904 52.2009 10.36C53.0595 11.816 53.4889 13.4587 53.4889 15.288C53.4889 17.864 52.2382 20.384 49.7369 22.848C47.2355 25.2747 43.8195 27.9627 39.4889 30.912C38.6675 31.5093 37.6969 32.2373 36.5769 33.096C35.4569 33.9547 34.4115 34.7947 33.4409 35.616H54.4409V42H29.8009V37.296C31.1449 35.9893 32.4515 34.7013 33.7209 33.432C35.0275 32.1253 36.2595 30.8933 37.4169 29.736C40.1049 26.9733 42.1022 24.528 43.4089 22.4C44.7529 20.2347 45.4249 17.92 45.4249 15.456C45.4249 12.88 44.9582 10.808 44.0249 9.24C43.0915 7.63467 41.6915 6.832 39.8249 6.832C38.6675 6.832 37.5849 7.13066 36.5769 7.728C35.6062 8.288 34.7475 9.27733 34.0009 10.696L31.3129 15.904H30.7529ZM72.3348 42V32.928H57.6068V29.736L74.0148 6.048H79.5028V28.784H84.8228V32.928H79.5028V42H72.3348ZM60.0708 28.784H72.3348V11.144L60.0708 28.784ZM113.965 20.664C113.965 24.4347 113.088 27.8693 111.333 30.968C109.578 34.0293 107.002 36.6053 103.605 38.696C100.245 40.7867 96.1195 42.2613 91.2288 43.12L91.0048 42.112C94.3275 41.4027 96.9968 40.376 99.0128 39.032C101.029 37.688 102.541 35.9893 103.549 33.936C104.594 31.8827 105.266 29.4187 105.565 26.544C104.781 27.0667 103.81 27.496 102.653 27.832C101.496 28.1307 100.189 28.28 98.7328 28.28C96.6422 28.28 94.7568 27.8693 93.0768 27.048C91.4342 26.1893 90.1275 24.9573 89.1568 23.352C88.1862 21.7467 87.7008 19.8053 87.7008 17.528C87.7008 15.1013 88.2982 13.0107 89.4928 11.256C90.6875 9.464 92.2555 8.08267 94.1968 7.112C96.1755 6.14133 98.3408 5.656 100.693 5.656C104.949 5.656 108.216 7 110.493 9.688C112.808 12.3387 113.965 15.9973 113.965 20.664ZM95.5968 16.8C95.5968 20.1973 96.0635 22.6613 96.9968 24.192C97.9302 25.6853 99.4608 26.432 101.589 26.432C103.157 26.432 104.52 26.096 105.677 25.424C105.752 24.6027 105.808 23.7813 105.845 22.96C105.882 22.1013 105.901 21.2053 105.901 20.272C105.901 16.8373 105.733 14.1493 105.397 12.208C105.061 10.2293 104.52 8.82933 103.773 8.008C103.026 7.18667 102.018 6.776 100.749 6.776C99.0315 6.776 97.7435 7.56 96.8848 9.128C96.0262 10.696 95.5968 13.2533 95.5968 16.8ZM123.739 42.84C122.395 42.84 121.256 42.3733 120.323 41.44C119.389 40.5067 118.923 39.3867 118.923 38.08C118.923 36.7733 119.389 35.6347 120.323 34.664C121.256 33.6933 122.395 33.208 123.739 33.208C125.083 33.208 126.221 33.6933 127.155 34.664C128.088 35.6347 128.555 36.7733 128.555 38.08C128.555 39.3867 128.088 40.5067 127.155 41.44C126.221 42.3733 125.083 42.84 123.739 42.84ZM145.753 42.84C143.513 42.84 141.404 42.2053 139.425 40.936C137.484 39.6667 135.916 37.6693 134.721 34.944C133.526 32.2187 132.929 28.672 132.929 24.304C132.929 19.8987 133.526 16.3333 134.721 13.608C135.916 10.8453 137.484 8.82933 139.425 7.56C141.404 6.29066 143.513 5.656 145.753 5.656C147.993 5.656 150.084 6.29066 152.025 7.56C154.004 8.82933 155.59 10.8453 156.785 13.608C158.017 16.3333 158.633 19.8987 158.633 24.304C158.633 28.672 158.017 32.2187 156.785 34.944C155.59 37.6693 154.004 39.6667 152.025 40.936C150.084 42.2053 147.993 42.84 145.753 42.84ZM145.753 41.72C146.686 41.72 147.47 41.4773 148.105 40.992C148.777 40.5067 149.318 39.6293 149.729 38.36C150.14 37.0907 150.438 35.336 150.625 33.096C150.812 30.8187 150.905 27.888 150.905 24.304C150.905 20.72 150.812 17.7893 150.625 15.512C150.438 13.1973 150.14 11.4053 149.729 10.136C149.318 8.86666 148.777 7.98933 148.105 7.504C147.47 7.01867 146.686 6.776 145.753 6.776C144.82 6.776 144.017 7.01867 143.345 7.504C142.71 7.98933 142.188 8.86666 141.777 10.136C141.366 11.368 141.068 13.1413 140.881 15.456C140.694 17.7333 140.601 20.6827 140.601 24.304C140.601 27.888 140.694 30.8187 140.881 33.096C141.068 35.3733 141.366 37.1467 141.777 38.416C142.188 39.648 142.71 40.5067 143.345 40.992C144.017 41.4773 144.82 41.72 145.753 41.72ZM173.432 42.84C171.192 42.84 169.082 42.2053 167.104 40.936C165.162 39.6667 163.594 37.6693 162.4 34.944C161.205 32.2187 160.608 28.672 160.608 24.304C160.608 19.8987 161.205 16.3333 162.4 13.608C163.594 10.8453 165.162 8.82933 167.104 7.56C169.082 6.29066 171.192 5.656 173.432 5.656C175.672 5.656 177.762 6.29066 179.704 7.56C181.682 8.82933 183.269 10.8453 184.464 13.608C185.696 16.3333 186.312 19.8987 186.312 24.304C186.312 28.672 185.696 32.2187 184.464 34.944C183.269 37.6693 181.682 39.6667 179.704 40.936C177.762 42.2053 175.672 42.84 173.432 42.84ZM173.432 41.72C174.365 41.72 175.149 41.4773 175.784 40.992C176.456 40.5067 176.997 39.6293 177.408 38.36C177.818 37.0907 178.117 35.336 178.304 33.096C178.49 30.8187 178.584 27.888 178.584 24.304C178.584 20.72 178.49 17.7893 178.304 15.512C178.117 13.1973 177.818 11.4053 177.408 10.136C176.997 8.86666 176.456 7.98933 175.784 7.504C175.149 7.01867 174.365 6.776 173.432 6.776C172.498 6.776 171.696 7.01867 171.024 7.504C170.389 7.98933 169.866 8.86666 169.456 10.136C169.045 11.368 168.746 13.1413 168.56 15.456C168.373 17.7333 168.28 20.6827 168.28 24.304C168.28 27.888 168.373 30.8187 168.56 33.096C168.746 35.3733 169.045 37.1467 169.456 38.416C169.866 39.648 170.389 40.5067 171.024 40.992C171.696 41.4773 172.498 41.72 173.432 41.72Z" fill="#36536B"/>
</svg>
