<svg width="187" height="49" viewBox="0 0 187 49" fill="none" xmlns="http://www.w3.org/2000/svg">
<path d="M12.131 42.84C8.54696 42.84 5.67229 42.224 3.50696 40.992C1.37896 39.7227 0.314961 37.968 0.314961 35.728C0.314961 34.6453 0.632295 33.7867 1.26696 33.152C1.93896 32.48 2.74163 32.144 3.67496 32.144C4.60829 32.144 5.41096 32.424 6.08296 32.984C6.75496 33.544 7.18429 34.552 7.37096 36.008L7.53896 36.904C7.80029 38.6213 8.3043 39.8533 9.05096 40.6C9.83496 41.3467 10.8803 41.72 12.187 41.72V27.888L10.507 27.272C7.33363 26.1893 4.86963 24.7707 3.11496 23.016C1.39763 21.224 0.538961 18.984 0.538961 16.296C0.538961 13.3093 1.56563 10.8267 3.61896 8.848C5.70963 6.86933 8.5843 5.80533 12.243 5.656V0.615999H13.587V5.656C16.8723 5.73067 19.4296 6.47733 21.259 7.896C23.1256 9.27733 24.059 10.92 24.059 12.824C24.059 13.944 23.7603 14.8027 23.163 15.4C22.603 15.9973 21.819 16.296 20.811 16.296C19.9523 16.296 19.1683 15.9973 18.459 15.4C17.787 14.8027 17.3016 13.6827 17.003 12.04L16.779 10.752C16.555 9.59466 16.219 8.736 15.771 8.176C15.323 7.57867 14.595 7.224 13.587 7.112V20.272L14.595 20.608C18.515 21.8773 21.259 23.464 22.827 25.368C24.4323 27.272 25.235 29.4933 25.235 32.032C25.235 34.0107 24.7496 35.784 23.779 37.352C22.8456 38.8827 21.5016 40.1333 19.747 41.104C17.9923 42.0747 15.9203 42.6347 13.531 42.784V48.44H12.187V42.84H12.131ZM6.47496 12.936C6.47496 14.6533 6.94163 16.072 7.87496 17.192C8.84563 18.312 10.3016 19.208 12.243 19.88V7.056C11.347 7.13066 10.451 7.392 9.55496 7.84C8.65896 8.288 7.9123 8.94133 7.31496 9.8C6.75496 10.6213 6.47496 11.6667 6.47496 12.936ZM19.075 34.888C19.075 33.208 18.6643 31.9013 17.843 30.968C17.0216 30.0347 15.5843 29.1573 13.531 28.336V41.664C15.2483 41.4027 16.5923 40.6747 17.563 39.48C18.571 38.2853 19.075 36.7547 19.075 34.888ZM42.9609 42V32.928H28.2329V29.736L44.6409 6.048H50.1289V28.784H55.4489V32.928H50.1289V42H42.9609ZM30.6969 28.784H42.9609V11.144L30.6969 28.784ZM84.5909 20.664C84.5909 24.4347 83.7136 27.8693 81.9589 30.968C80.2043 34.0293 77.6283 36.6053 74.2309 38.696C70.8709 40.7867 66.7456 42.2613 61.8549 43.12L61.6309 42.112C64.9536 41.4027 67.6229 40.376 69.6389 39.032C71.6549 37.688 73.1669 35.9893 74.1749 33.936C75.2203 31.8827 75.8923 29.4187 76.1909 26.544C75.4069 27.0667 74.4363 27.496 73.2789 27.832C72.1216 28.1307 70.8149 28.28 69.3589 28.28C67.2683 28.28 65.3829 27.8693 63.7029 27.048C62.0603 26.1893 60.7536 24.9573 59.7829 23.352C58.8123 21.7467 58.3269 19.8053 58.3269 17.528C58.3269 15.1013 58.9243 13.0107 60.1189 11.256C61.3136 9.464 62.8816 8.08267 64.8229 7.112C66.8016 6.14133 68.9669 5.656 71.3189 5.656C75.5749 5.656 78.8416 7 81.1189 9.688C83.4336 12.3387 84.5909 15.9973 84.5909 20.664ZM66.2229 16.8C66.2229 20.1973 66.6896 22.6613 67.6229 24.192C68.5563 25.6853 70.0869 26.432 72.2149 26.432C73.7829 26.432 75.1456 26.096 76.3029 25.424C76.3776 24.6027 76.4336 23.7813 76.4709 22.96C76.5083 22.1013 76.5269 21.2053 76.5269 20.272C76.5269 16.8373 76.3589 14.1493 76.0229 12.208C75.6869 10.2293 75.1456 8.82933 74.3989 8.008C73.6523 7.18667 72.6443 6.776 71.3749 6.776C69.6576 6.776 68.3696 7.56 67.5109 9.128C66.6523 10.696 66.2229 13.2533 66.2229 16.8ZM113.965 20.664C113.965 24.4347 113.088 27.8693 111.333 30.968C109.578 34.0293 107.002 36.6053 103.605 38.696C100.245 40.7867 96.1195 42.2613 91.2288 43.12L91.0048 42.112C94.3275 41.4027 96.9968 40.376 99.0128 39.032C101.029 37.688 102.541 35.9893 103.549 33.936C104.594 31.8827 105.266 29.4187 105.565 26.544C104.781 27.0667 103.81 27.496 102.653 27.832C101.496 28.1307 100.189 28.28 98.7328 28.28C96.6422 28.28 94.7568 27.8693 93.0768 27.048C91.4342 26.1893 90.1275 24.9573 89.1568 23.352C88.1862 21.7467 87.7008 19.8053 87.7008 17.528C87.7008 15.1013 88.2982 13.0107 89.4928 11.256C90.6875 9.464 92.2555 8.08267 94.1968 7.112C96.1755 6.14133 98.3408 5.656 100.693 5.656C104.949 5.656 108.216 7 110.493 9.688C112.808 12.3387 113.965 15.9973 113.965 20.664ZM95.5968 16.8C95.5968 20.1973 96.0635 22.6613 96.9968 24.192C97.9302 25.6853 99.4608 26.432 101.589 26.432C103.157 26.432 104.52 26.096 105.677 25.424C105.752 24.6027 105.808 23.7813 105.845 22.96C105.882 22.1013 105.901 21.2053 105.901 20.272C105.901 16.8373 105.733 14.1493 105.397 12.208C105.061 10.2293 104.52 8.82933 103.773 8.008C103.026 7.18667 102.018 6.776 100.749 6.776C99.0315 6.776 97.7435 7.56 96.8848 9.128C96.0262 10.696 95.5968 13.2533 95.5968 16.8ZM123.739 42.84C122.395 42.84 121.256 42.3733 120.323 41.44C119.389 40.5067 118.923 39.3867 118.923 38.08C118.923 36.7733 119.389 35.6347 120.323 34.664C121.256 33.6933 122.395 33.208 123.739 33.208C125.083 33.208 126.221 33.6933 127.155 34.664C128.088 35.6347 128.555 36.7733 128.555 38.08C128.555 39.3867 128.088 40.5067 127.155 41.44C126.221 42.3733 125.083 42.84 123.739 42.84ZM145.753 42.84C143.513 42.84 141.404 42.2053 139.425 40.936C137.484 39.6667 135.916 37.6693 134.721 34.944C133.526 32.2187 132.929 28.672 132.929 24.304C132.929 19.8987 133.526 16.3333 134.721 13.608C135.916 10.8453 137.484 8.82933 139.425 7.56C141.404 6.29066 143.513 5.656 145.753 5.656C147.993 5.656 150.084 6.29066 152.025 7.56C154.004 8.82933 155.59 10.8453 156.785 13.608C158.017 16.3333 158.633 19.8987 158.633 24.304C158.633 28.672 158.017 32.2187 156.785 34.944C155.59 37.6693 154.004 39.6667 152.025 40.936C150.084 42.2053 147.993 42.84 145.753 42.84ZM145.753 41.72C146.686 41.72 147.47 41.4773 148.105 40.992C148.777 40.5067 149.318 39.6293 149.729 38.36C150.14 37.0907 150.438 35.336 150.625 33.096C150.812 30.8187 150.905 27.888 150.905 24.304C150.905 20.72 150.812 17.7893 150.625 15.512C150.438 13.1973 150.14 11.4053 149.729 10.136C149.318 8.86666 148.777 7.98933 148.105 7.504C147.47 7.01867 146.686 6.776 145.753 6.776C144.82 6.776 144.017 7.01867 143.345 7.504C142.71 7.98933 142.188 8.86666 141.777 10.136C141.366 11.368 141.068 13.1413 140.881 15.456C140.694 17.7333 140.601 20.6827 140.601 24.304C140.601 27.888 140.694 30.8187 140.881 33.096C141.068 35.3733 141.366 37.1467 141.777 38.416C142.188 39.648 142.71 40.5067 143.345 40.992C144.017 41.4773 144.82 41.72 145.753 41.72ZM173.432 42.84C171.192 42.84 169.082 42.2053 167.104 40.936C165.162 39.6667 163.594 37.6693 162.4 34.944C161.205 32.2187 160.608 28.672 160.608 24.304C160.608 19.8987 161.205 16.3333 162.4 13.608C163.594 10.8453 165.162 8.82933 167.104 7.56C169.082 6.29066 171.192 5.656 173.432 5.656C175.672 5.656 177.762 6.29066 179.704 7.56C181.682 8.82933 183.269 10.8453 184.464 13.608C185.696 16.3333 186.312 19.8987 186.312 24.304C186.312 28.672 185.696 32.2187 184.464 34.944C183.269 37.6693 181.682 39.6667 179.704 40.936C177.762 42.2053 175.672 42.84 173.432 42.84ZM173.432 41.72C174.365 41.72 175.149 41.4773 175.784 40.992C176.456 40.5067 176.997 39.6293 177.408 38.36C177.818 37.0907 178.117 35.336 178.304 33.096C178.49 30.8187 178.584 27.888 178.584 24.304C178.584 20.72 178.49 17.7893 178.304 15.512C178.117 13.1973 177.818 11.4053 177.408 10.136C176.997 8.86666 176.456 7.98933 175.784 7.504C175.149 7.01867 174.365 6.776 173.432 6.776C172.498 6.776 171.696 7.01867 171.024 7.504C170.389 7.98933 169.866 8.86666 169.456 10.136C169.045 11.368 168.746 13.1413 168.56 15.456C168.373 17.7333 168.28 20.6827 168.28 24.304C168.28 27.888 168.373 30.8187 168.56 33.096C168.746 35.3733 169.045 37.1467 169.456 38.416C169.866 39.648 170.389 40.5067 171.024 40.992C171.696 41.4773 172.498 41.72 173.432 41.72Z" fill="#36536B"/>
</svg>
